<svg xmlns="http://www.w3.org/2000/svg" viewBox="0 0 253.506 209.018"><defs><clipPath id="a"><ellipse cx="93.11" cy="129.989" rx="85.854" ry="55.33" fill="none"/></clipPath></defs><g data-name="Layer 2"><g data-name="ART"><path d="M150.567 92.861s49.252-33.622 84.675-38.576a6.976 6.976 0 014.938 1.174l9.794 6.78a6.973 6.973 0 012.518 8.29l-.505 1.283a6.972 6.972 0 01-5.752 4.377c-11.1 1.184-43.374 6.605-83.889 31.11" fill="#3e4147"/><path d="M162.347 107.822a.522.522 0 01-.27-.969c40.237-24.338 72.22-29.915 84.103-31.184a6.433 6.433 0 005.321-4.048l.505-1.285a6.423 6.423 0 00-2.33-7.667l-9.793-6.78a6.444 6.444 0 00-4.569-1.088c-34.898 4.881-83.961 38.157-84.453 38.492a.522.522 0 01-.589-.863c.494-.337 49.76-33.748 84.898-38.662a7.47 7.47 0 015.308 1.262l9.793 6.78a7.465 7.465 0 012.707 8.91l-.505 1.283a7.476 7.476 0 01-6.183 4.706c-11.813 1.26-43.615 6.808-83.674 31.037a.514.514 0 01-.27.076z" fill="#3e4147"/><path d="M178.205 90.259c-1.576-2.304-7.039-5.37-11.42-7.57-9.83 5.812-16.218 10.172-16.218 10.172l11.78 14.438a268.862 268.862 0 0115.858-8.88z" fill="#d8e9f7"/><path d="M162.347 107.822a.522.522 0 01-.405-.193l-11.78-14.437a.523.523 0 01.11-.762c.064-.043 6.516-4.437 16.247-10.19a.52.52 0 01.5-.018c6.388 3.208 10.297 5.813 11.617 7.741a.521.521 0 01.092.295v8.16a.522.522 0 01-.283.464 270.025 270.025 0 00-15.829 8.864.512.512 0 01-.27.076zm-11.014-14.847l11.131 13.644a270.58 270.58 0 0115.22-8.519v-7.675c-1.28-1.726-5.031-4.19-10.88-7.141-8.076 4.784-13.837 8.595-15.471 9.691z" fill="#3e4147"/><path d="M184.408 137.874c0 38.908-41.125 70.45-91.856 70.45S.696 176.781.696 137.873s41.125-63.216 91.856-63.216 91.856 24.308 91.856 63.216z" fill="#3e4147"/><path d="M92.552 209.018C41.52 209.018 0 177.103 0 137.874c0-18.885 9.412-35.061 27.217-46.78 16.786-11.047 39.99-17.13 65.335-17.13s48.55 6.083 65.335 17.13c17.805 11.719 27.217 27.895 27.217 46.78 0 39.23-41.519 71.144-92.552 71.144zm0-133.664c-25.077 0-48.009 6.003-64.57 16.902-17.396 11.45-26.59 27.224-26.59 45.618 0 38.461 40.894 69.753 91.16 69.753s91.16-31.292 91.16-69.753c0-18.394-9.194-34.168-26.59-45.618-16.561-10.899-39.493-16.902-64.57-16.902z" fill="#3e4147"/><ellipse cx="92.552" cy="129.989" rx="91.856" ry="59.773" fill="#d8e9f7"/><path d="M92.552 190.457C41.52 190.457 0 163.33 0 129.989 0 96.646 41.519 69.52 92.552 69.52s92.552 27.126 92.552 60.469c0 33.342-41.519 60.468-92.552 60.468zm0-119.546c-50.266 0-91.16 26.503-91.16 59.078s40.894 59.077 91.16 59.077 91.16-26.502 91.16-59.077-40.894-59.078-91.16-59.078z" fill="#3e4147"/><ellipse cx="93.11" cy="129.989" rx="85.854" ry="55.33" fill="#3e4147"/><path d="M93.11 186.014c-47.723 0-86.55-25.133-86.55-56.025s38.827-56.026 86.55-56.026 86.55 25.133 86.55 56.026-38.826 56.025-86.55 56.025zm0-110.66c-46.956 0-85.158 24.51-85.158 54.635s38.202 54.635 85.158 54.635 85.159-24.51 85.159-54.635-38.202-54.635-85.159-54.635z" fill="#3e4147"/><g clip-path="url(#a)"><path d="M181.565 139.284a9.94 9.94 0 00-2.339-11.358 10.2 10.2 0 00-8.662-2.228 1.624 1.624 0 01-1.948-1.637 7.074 7.074 0 00-.545-3.006 16.44 16.44 0 00-2.02-3.36 1.66 1.66 0 00-2.69.01 19.942 19.942 0 00-2.138 3.98 1.67 1.67 0 01-2.591.678 18.643 18.643 0 00-2.456-1.704 1.603 1.603 0 01-.588-2.246 3.357 3.357 0 00.086-3.557c-1.164-1.738-3.454-2.302-5.545-2.556a17.18 17.18 0 01-4.82-.968 1.643 1.643 0 00-2.031.64l-3.208 5.043a1.665 1.665 0 01-2.699.161 17.149 17.149 0 00-8.439-5.8 1.607 1.607 0 01-1.084-1.936 15.026 15.026 0 00.502-4.065 1.632 1.632 0 00-1.193-1.534 17.612 17.612 0 01-7.002-3.928 1.663 1.663 0 00-2.576.397l-1.81 3.232a1.672 1.672 0 01-2.556.42 16.432 16.432 0 00-15.685-3 1.678 1.678 0 01-1.893-.568 54.138 54.138 0 00-9.083-9.365 2.912 2.912 0 00-1.455-.762 3.006 3.006 0 00-1.735.562L69.06 99.038a1.634 1.634 0 00-.703 2.027 76.11 76.11 0 013.117 9.726 1.64 1.64 0 01-1.402 2.03 75.922 75.922 0 00-10.965 2.04 1.707 1.707 0 01-1.886-.787c-1.318-2.12-5.398-2.242-7.122-.051-1.582 2.01-1.527 4.766-.705 7.253a1.61 1.61 0 01-1.098 2.067 6.602 6.602 0 00-4.777 5.627 1.622 1.622 0 01-1.48 1.442 12.546 12.546 0 00-8.419 5.367 26.774 26.774 0 00-3.54 7.59 1.645 1.645 0 001.634 2.12q.149-.003.297.006a1.643 1.643 0 011.009 2.87 10.374 10.374 0 01-8.873 2.444 1.632 1.632 0 00-1.712.763c-2.492 4.11-4.531 9.314-1.492 12.84 1.667 1.934 4.366 2.6 6.473 4.053 1.976 1.363 3.381 3.387 5.189 4.964 2.944 2.567 6.793 3.823 10.528 5.015 15.454 4.93 31.24 9.884 47.475 9.762 8.837-.066 17.584-1.642 26.266-3.274 13.038-2.45 26.27-5.117 37.956-11.347s21.798-16.629 24.452-29.506" fill="#df642f"/></g><g clip-path="url(#a)"><path d="M33.62 135.779c-.054.076-.103.155-.156.232a4.15 4.15 0 00.775 1.126c1.673 1.71 4.398 2.041 6.723 1.438a15.266 15.266 0 004.26-1.974 3.11 3.11 0 012.064-1.377c-.678.468-1.363.937-2.063 1.377a4.746 4.746 0 00.091 5.29c1.688 2.218 4.828 2.828 7.618 2.555 5.737-.562 10.707-4.02 15.38-7.361 1.54.786 3.218 1.597 4.928 1.32s3.216-2.206 2.378-3.708a3.925 3.925 0 00-1.346-1.253 51.24 51.24 0 00-11.505-5.694 15 15 0 003.786-3.678c.42-.587.804-1.376.423-1.989a2.02 2.02 0 00-1.258-.712l-7.221-1.991a10.183 10.183 0 00-.044-4.486 1.751 1.751 0 01-1.232-.82c-1.318-2.12-5.398-2.242-7.122-.051-1.582 2.01-1.527 4.766-.705 7.253a1.61 1.61 0 01-1.098 2.067 6.602 6.602 0 00-4.777 5.627 1.622 1.622 0 01-1.48 1.442 12.545 12.545 0 00-8.419 5.367z" fill="#df642f"/><path d="M162.04 169.041c-.427-2.026-.923-4.04-1.42-6.046a6.349 6.349 0 00-1.523-3.27 6.032 6.032 0 00-2.641-1.211c-4.664-1.225-10.049-1.59-13.925 1.257-.982.72-1.826 1.624-2.868 2.258a6.85 6.85 0 01-6.234.393 14.284 14.284 0 004.3-6.902l-8.855-1.568a10.893 10.893 0 00-2.902-.249 11.48 11.48 0 00-3.83 1.347 103.432 103.432 0 01-16.855 6.403l4.84 4.587a2.774 2.774 0 011.103 1.805c.02 1.493-2.049 1.908-3.553 1.828l-18.78-1.003a7.206 7.206 0 00.985-4.954 13.522 13.522 0 00-5.869-.493 10.949 10.949 0 004.489-4.796 28.45 28.45 0 00-11.814-8.589 22.363 22.363 0 00-7.86-1.596 18.421 18.421 0 00-11.251 3.78 6.749 6.749 0 014.51 1.387c1.188 1.077 1.566 3.133.423 4.257a4.343 4.343 0 01-3.292.852 22.909 22.909 0 01-12.784-4.622l-9.205 1.053a5.877 5.877 0 01-1.486 4.701 18.588 18.588 0 0110.085 4.417c-7.145 2.665-16.055-.846-19.398-7.645l6.034-.887c1.554-1.637.398-4.446-1.439-5.774a10.32 10.32 0 01-6.877 1.049 1.632 1.632 0 00-1.713.763c-2.492 4.109-4.531 9.314-1.492 12.84 1.667 1.933 4.366 2.598 6.473 4.052 1.976 1.363 3.381 3.387 5.189 4.964 2.944 2.567 6.793 3.823 10.527 5.015 15.455 4.93 31.24 9.884 47.476 9.762 8.837-.066 17.584-1.642 26.266-3.274 13.038-2.45 26.27-5.117 37.956-11.347a58.484 58.484 0 007.21-4.544zM71.474 110.791a1.64 1.64 0 01-1.402 2.03c-2.237.248-4.46.608-6.666 1.054a12.898 12.898 0 01-2.893 4.514 37 37 0 0013.136.548l-3.214 4.584a57.88 57.88 0 0016.29.532c4.041-2.972 2.975-10.387-1.744-12.124a6.862 6.862 0 006.16-3.518c3.87 4.549 11.12 3.335 16.9 1.717l-10.887 4.712-2.198-1.776a8.188 8.188 0 00-2.18 7.214c-1.783-.545-3.482 1.607-3.112 3.418s2.04 3.075 3.738 3.842a15.286 15.286 0 0016.875-3.262 10.829 10.829 0 0012.074-1.828l-3.573 6.751a15.799 15.799 0 00-18.224 6.689 4.698 4.698 0 00-.8 2.521c.093 1.958 2.105 3.19 3.874 4.07l7.75 3.858-3.404 2.287a66.941 66.941 0 0025.575-4.412 13.603 13.603 0 0022.761 4.638 48.843 48.843 0 00-12.909-3.644 39.613 39.613 0 0117.499-6.994 6.456 6.456 0 003.072-.93c1.59-1.201 1.482-3.792.199-5.313a7.985 7.985 0 00-5.345-2.366c1.328-1.018 3.14.261 4.781.616 2.775.601 5.298-1.858 5.972-4.64a1.587 1.587 0 01-.963-1.518 7.072 7.072 0 00-.545-3.006 16.436 16.436 0 00-2.02-3.36 1.66 1.66 0 00-2.69.01 19.949 19.949 0 00-2.138 3.98 1.67 1.67 0 01-2.591.678 18.642 18.642 0 00-2.456-1.704 1.603 1.603 0 01-.588-2.245 3.357 3.357 0 00.086-3.558c-1.164-1.738-3.454-2.302-5.545-2.556a17.181 17.181 0 01-4.82-.968 1.643 1.643 0 00-2.031.64l-3.208 5.043a1.665 1.665 0 01-2.699.161 17.149 17.149 0 00-8.439-5.8 1.607 1.607 0 01-1.084-1.936 15.023 15.023 0 00.502-4.065 1.632 1.632 0 00-1.193-1.534 17.612 17.612 0 01-7.002-3.928 1.663 1.663 0 00-2.576.397l-1.81 3.232a1.672 1.672 0 01-2.556.42 16.432 16.432 0 00-15.685-3 1.678 1.678 0 01-1.893-.568 54.136 54.136 0 00-9.083-9.365 2.911 2.911 0 00-1.455-.762 3.006 3.006 0 00-1.735.562L69.06 99.038a1.634 1.634 0 00-.703 2.027 76.114 76.114 0 013.117 9.726z" fill="#f3783c"/></g><path d="M46.413 134.132c-5.386-.89-8.92 1.36-12.478 5.462-3.083 3.555-2.252 9.37.962 12.81s8.167 4.81 12.898 4.872a3.602 3.602 0 001.913-.35 3.521 3.521 0 001.329-2.169 25.233 25.233 0 00-3.116-20.625" fill="#cedd3e"/><path d="M54.654 158.773a23.95 23.95 0 014.546-3.165 2.946 2.946 0 011.736-.482c1.11.153 1.686 1.371 2.01 2.434a33.856 33.856 0 011.14 5.17 33.973 33.973 0 01-6.884-.538 4.931 4.931 0 01-2.458-.967 1.832 1.832 0 01-.42-2.377" fill="#fdbe2a"/><path d="M188.16 9.395c-12.588 12.581-45.489 46.7-61.823 75.293a4.217 4.217 0 00-.546 2.017c-.105 5.5-2.172 31.77-30.996 56.83a4.197 4.197 0 01-2.38 1.006c-5.601.503-26.656 1.608-32.458-9.505a4.179 4.179 0 01.098-4.014c3.864-6.727 19.366-30.85 52.374-49.557a4.188 4.188 0 001.352-1.213c4.826-6.781 41.187-57.522 63.409-78.43a4.189 4.189 0 014.063-.953l5.127 1.522a4.205 4.205 0 011.78 7.004z" fill="#357fc1"/><path d="M85.726 145.53c-8.81 0-21.884-1.55-26.385-10.172a4.854 4.854 0 01.11-4.683c3.994-6.95 19.59-31.087 52.635-49.815a3.473 3.473 0 001.128-1.012c4.144-5.822 41.136-57.492 63.5-78.533A4.901 4.901 0 01181.45.202l5.128 1.522a4.9 4.9 0 012.072 8.163c-13.163 13.157-45.526 46.815-61.71 75.146a3.542 3.542 0 00-.454 1.685c-.098 5.127-2.066 31.982-31.235 57.342a4.869 4.869 0 01-2.774 1.174 76.877 76.877 0 01-6.752.297zM180.053 1.39a3.485 3.485 0 00-2.386.939c-22.267 20.949-59.183 72.515-63.32 78.326a4.864 4.864 0 01-1.575 1.416c-32.738 18.554-48.165 42.424-52.113 49.298a3.465 3.465 0 00-.085 3.344c5.55 10.63 25.726 9.682 31.779 9.134a3.473 3.473 0 001.986-.838c28.725-24.973 30.66-51.294 30.757-56.317a4.939 4.939 0 01.636-2.349C142 55.866 174.465 22.1 187.667 8.903a3.509 3.509 0 00-1.485-5.845l-5.127-1.522a3.522 3.522 0 00-1.002-.146z" fill="#3e4147"/><path d="M73.481 117.885s23.968-26.093 35.674-26.198c0 0 8.26.272 7.339 8.018 0 0-7.312 26.207-24.638 38.344" fill="#357fc1"/><path d="M91.857 138.744a.696.696 0 01-.4-1.266c16.56-11.599 23.979-36.615 24.353-37.91a6.025 6.025 0 00-1.209-4.786c-1.923-2.246-5.435-2.399-5.47-2.4-11.24.1-34.9 25.715-35.137 25.974a.696.696 0 11-1.025-.941c.987-1.075 24.308-26.318 36.18-26.423.197.006 4.174.167 6.502 2.877a7.377 7.377 0 011.534 5.918.695.695 0 01-.021.104c-.074.265-7.58 26.59-24.909 38.728a.69.69 0 01-.398.125z" fill="#3e4147"/><path d="M66.332 137.943a23.816 23.816 0 01-5.256-5.781.16.16 0 01-.001-.17 10.03 10.03 0 0117.194.319.147.147 0 00.251.01l4.02-6.067a.148.148 0 00-.105-.227 4.747 4.747 0 01-3.441-5.957 6 6 0 016.442-3.728c2.903.396 5.343 3.923 3.913 6.227a.146.146 0 00.18.216 3.85 3.85 0 013.177-.142 2.162 2.162 0 01.989 2.887.147.147 0 00.148.228c1.93-.374 3.967-.665 5.759.1 1.924.821 3.206 3.398 1.934 5.047a5.286 5.286 0 01-3.326 1.532l-3.197.626.99 6.26a.146.146 0 00.11-.074 13.591 13.591 0 0116.134-5.781 6.55 6.55 0 014.104 3.677 3.548 3.548 0 01-1.49 4.087.15.15 0 00.052.287 16.319 16.319 0 018.952 3.21.161.161 0 01.05.194 9.286 9.286 0 01-12.596 3.836c-1.084-.646-2.09-1.546-3.345-1.703-2.682-.337-5.357 2.83-7.701 1.494 2.159.702 2.847 3.654 1.829 5.666s-3.17 3.202-5.299 3.988a26.08 26.08 0 01-11.28 1.505c-3.47-.307-7.025-1.41-9.433-3.902-2.325-2.405-3.249-6.314-1.595-9.178a.146.146 0 00-.16-.22 65.036 65.036 0 01-10.441 1.664.145.145 0 00-.09.25 7.94 7.94 0 012.06 7.14.163.163 0 01-.147.125c-3.853.199-7.175-2.628-9.761-5.481a13.144 13.144 0 01-3.018-4.583 7.45 7.45 0 013.526-8.606 7.603 7.603 0 019.178 1.905" fill="#b5c933"/><path d="M125.643 133.679a28.183 28.183 0 008.847-.615 4.16 4.16 0 001.975-.874c1.468-1.39.436-3.829-.774-5.444a41.227 41.227 0 00-2.917-3.475 2.605 2.605 0 00-4.278-.485c-3.052 2.41-6.064 6.32-4.345 9.79a2.246 2.246 0 001.714 1.384c.771.047 1.535-.837 1.134-1.491M75.98 127.049c-1.926-2.24 2.268-4.793 5.22-5.132s5.683 1.823 7.146 4.384c.917 1.605 1.442 3.722.352 5.216-1.377 1.888-4.402 1.532-6.382.275s-3.517-3.179-5.661-4.137M82.141 89.564c-1.282.62-.996 2.804-1.886 3.908a3.27 3.27 0 00-.343 3.919 4.887 4.887 0 002.232 1.359l10.222 3.91a2.246 2.246 0 001.896.131 1.893 1.893 0 00.64-.742c1.702-3.024.864-7.062-1.515-9.6a12.645 12.645 0 00-9.508-3.6M73.481 146.043c-3.081-.803-6.372 1.78-7.87 4.565a7.242 7.242 0 001.584 8.635c2.016 1.758 4.854 2.251 7.54 2.296 1.97.033 4.086-.192 5.593-1.45 2.294-1.913 2.26-5.599.745-8.162s-4.123-4.27-6.641-5.884M101.993 144.513c-2.455-.846-3.282 3.124-2.963 5.679s2.764 4.452 5.315 4.95c2.236.436 5.052-.37 5.642-2.55.458-1.69-.633-3.423-1.941-4.598s-2.897-2.074-3.947-3.48M142.263 110.64a17.607 17.607 0 00-1.722 9.101c.397 3.099 2.277 6.148 5.22 7.273a2.577 2.577 0 002.669-.2 3.008 3.008 0 00.665-1.251l3.58-10.501a5.784 5.784 0 00.412-3.62 5.351 5.351 0 00-2.012-2.375 32.267 32.267 0 00-6.306-3.774" fill="#cedd3e"/><path d="M131.796 144.092c.299-4.015 4.177-6.698 7.681-8.739a9.763 9.763 0 013.685-1.508 3.361 3.361 0 013.422 1.558c.647 1.314-.011 2.89-.851 4.092a14.509 14.509 0 01-8.504 5.746 3.949 3.949 0 01-1.82.096 3.056 3.056 0 01-2.08-2.642 8.876 8.876 0 01.48-3.504M136.025 159.79a4.668 4.668 0 00-3.472 3.362 8.892 8.892 0 00.23 4.995c.755 2.558 2.539 5.222 5.22 5.451 3.225.276 5.653-3.36 5.362-6.553s-2.392-5.9-4.409-8.41M89.963 153.69c-1.51-1.163-3.989-.209-4.692 1.552a4.737 4.737 0 001.539 5.11 9.784 9.784 0 005.263 2.036 1.668 1.668 0 001.364-.24 1.564 1.564 0 00.355-1.178 10.56 10.56 0 00-3.715-7.945M90.414 117.885a50.692 50.692 0 00-11.592 9.053 18.51 18.51 0 0010.64.817c2.158-.477 4.398-1.503 5.361-3.474s-.175-4.915-2.383-5.025M73.504 156.055l-2.83 1.41a.965.965 0 00-.462 1.642l1.454 2.6c.575 1.028 1.582 2.227 2.686 1.798.906-.352 1.067-1.546.993-2.507a15.586 15.586 0 00-1.85-6.235M121.271 169.815a3.294 3.294 0 00-3.037-.211 2.057 2.057 0 00-.995 2.646 3.116 3.116 0 002.217 1.29 16.109 16.109 0 005.153.267c.459-.05 1.001-.188 1.145-.623a1.18 1.18 0 00-.3-1.003 8.92 8.92 0 00-3.867-3.043M150.863 145.164a5.097 5.097 0 00-4.678 2.576l8.15 1.052c.964-.564.84-2.102.038-2.876a5.368 5.368 0 00-3.095-1.132M115.8 121.791l-6.645 2.462c1.065 1.427 3.547 2.304 5.988 2.271a10.212 10.212 0 006.257-2.157c.274-.23.533-.494.526-.785-.025-.995-2.594-.951-3.394-1.8" fill="#fdbe2a"/></g></g></svg>
