<svg xmlns="http://www.w3.org/2000/svg" height="137.167" width="135.943"><g stroke="#3e4147" stroke-linecap="round" stroke-linejoin="round"><path d="M87.122 3.243A96.5 96.5 0 0068.696 1.08C57.583.587 45.161 2.634 35.651 8.831a95.761 95.761 0 00-14.677 11.224c-6.322 6.165-10.6 13.748-14.291 21.87-6 13.219-9.034 31.669.664 53.444a82.5 82.5 0 006.437 12.09 60.1 60.1 0 0015.247 16.591c10.477 7.684 23.854 12.361 36.66 12.1 6.256-.126 13.252-1.774 19.3-3.126 7.6-1.7 14.324-4.135 20.943-8.98 6.06-4.436 13.572-10.276 17.308-16.742a94.823 94.823 0 009.239-19.457c3.561-11.092 3.124-27.411-.409-38.551-4.151-13.086-10.107-23.654-19.788-32.748-6.89-6.463-20.746-12.254-25.162-13.303z" fill="#f3783c" stroke-width="2"/><path d="M53.029 39.236v58.707a2.976 2.976 0 004.751 2.389l42.785-29.353a2.976 2.976 0 000-4.778L57.78 36.848a2.977 2.977 0 00-4.751 2.388z" fill="#fdbe2a" stroke-width="1.837"/></g></svg>
